<?xml version="1.0" standalone="no"?>
<!DOCTYPE svg PUBLIC "-//W3C//DTD SVG 20010904//EN"
 "http://www.w3.org/TR/2001/REC-SVG-20010904/DTD/svg10.dtd">
<svg version="1.0" xmlns="http://www.w3.org/2000/svg"
 width="980.000000pt" height="980.000000pt" viewBox="0 0 980.000000 980.000000"
 preserveAspectRatio="xMidYMid meet">
<metadata>
Created by potrace 1.11, written by Peter Selinger 2001-2013
</metadata>
<g transform="translate(0.000000,980.000000) scale(0.100000,-0.100000)"
fill="#000000" stroke="none">
<path d="M3435 8984 c-380 -29 -685 -89 -994 -196 -1355 -468 -2301 -1658
-2432 -3060 -17 -188 -7 -635 20 -808 90 -604 308 -1137 655 -1605 122 -164
167 -217 333 -385 l143 -145 -344 -493 c-189 -271 -351 -511 -360 -533 -52
-129 15 -292 144 -353 95 -44 90 -45 1153 261 l968 279 120 -27 c534 -122
1161 -114 1704 22 524 132 997 368 1429 713 142 113 425 398 542 546 551 696
821 1530 774 2393 -42 761 -313 1462 -797 2056 -112 137 -390 414 -519 517
-563 450 -1195 715 -1909 799 -125 15 -526 27 -630 19z m660 -582 c710 -110
1312 -419 1800 -923 815 -841 1064 -2061 643 -3143 -209 -535 -592 -1025
-1072 -1369 -300 -215 -661 -384 -1017 -476 -291 -75 -492 -101 -789 -102
-294 0 -523 26 -782 92 -64 16 -136 29 -160 29 -27 0 -283 -69 -653 -175 -336
-97 -624 -179 -642 -184 -34 -10 -57 -46 269 420 98 141 118 186 118 269 0 97
-39 160 -165 264 -894 742 -1282 1902 -1009 3014 208 847 802 1581 1603 1982
307 154 618 252 956 300 189 28 194 28 495 25 216 -2 303 -7 405 -23z"/>
<path d="M3665 7620 c-537 -61 -981 -416 -1150 -922 -45 -134 -65 -255 -65
-387 0 -90 4 -114 24 -156 43 -93 123 -146 232 -153 61 -4 80 -1 125 20 113
52 157 125 169 283 19 231 93 390 253 541 267 254 656 296 980 106 82 -48 201
-163 258 -250 258 -393 113 -919 -312 -1132 -106 -54 -201 -79 -345 -90 -146
-12 -216 -29 -312 -77 -136 -67 -245 -208 -272 -352 -6 -29 -10 -205 -10 -391
0 -371 4 -400 60 -477 20 -28 52 -52 92 -72 115 -58 247 -35 330 57 71 79 72
81 76 433 l3 317 92 6 c497 38 919 313 1138 743 98 192 142 381 142 608 -1
361 -128 677 -379 935 -251 259 -566 398 -935 414 -63 2 -150 1 -194 -4z"/>
<path d="M3463 3810 c-165 -33 -262 -202 -207 -363 20 -60 82 -130 142 -158
110 -54 268 -17 336 78 43 61 54 97 55 173 1 82 -29 149 -89 203 -67 61 -149
84 -237 67z"/>
<path d="M7437 7370 c-98 -25 -176 -96 -202 -184 -32 -108 -9 -203 68 -280 49
-48 60 -54 216 -105 388 -128 722 -339 1011 -638 389 -402 619 -880 702 -1458
20 -138 17 -523 -5 -665 -101 -652 -407 -1191 -918 -1617 -108 -90 -139 -144
-139 -243 0 -37 5 -82 12 -101 6 -19 63 -129 125 -245 62 -116 115 -218 118
-226 4 -10 -160 44 -469 153 -504 179 -533 186 -626 159 -253 -76 -613 -109
-965 -91 -295 15 -410 41 -645 145 -103 45 -122 50 -185 50 -56 0 -81 -6 -121
-27 -161 -82 -203 -291 -87 -427 60 -70 304 -178 533 -235 196 -49 308 -59
685 -59 376 -1 453 6 735 61 l135 26 770 -274 c733 -260 773 -273 840 -273
156 1 266 113 267 272 1 86 11 63 -274 596 l-225 418 55 52 c30 28 100 101
155 161 412 455 673 1005 768 1615 30 193 38 599 15 800 -68 590 -282 1114
-650 1590 -103 134 -361 394 -493 498 -291 229 -615 403 -956 513 -131 43
-194 52 -250 39z"/>
</g>
</svg>
